<?xml version="1.0" encoding="UTF-8" standalone="no"?>
<!-- Created with Inkscape (http://www.inkscape.org/) -->

<svg
   version="1.1"
   id="svg1409"
   xml:space="preserve"
   width="1066.6667"
   height="1066.6667"
   viewBox="0 0 1066.6667 1066.6667"
   sodipodi:docname="dragon-color-2-pubicdomainvectors.org.svg"
   inkscape:version="1.1.2 (b8e25be833, 2022-02-05)"
   xmlns:inkscape="http://www.inkscape.org/namespaces/inkscape"
   xmlns:sodipodi="http://sodipodi.sourceforge.net/DTD/sodipodi-0.dtd"
   xmlns="http://www.w3.org/2000/svg"
   xmlns:svg="http://www.w3.org/2000/svg"><defs
     id="defs1413"><clipPath
       clipPathUnits="userSpaceOnUse"
       id="clipPath1423"><path
         d="M 0,800 H 800 V 0 H 0 Z"
         id="path1421" /></clipPath></defs><sodipodi:namedview
     id="namedview1411"
     pagecolor="#ffffff"
     bordercolor="#666666"
     borderopacity="1.0"
     inkscape:pageshadow="2"
     inkscape:pageopacity="0.0"
     inkscape:pagecheckerboard="0"
     showgrid="false"
     inkscape:zoom="0.77906244"
     inkscape:cx="533.33337"
     inkscape:cy="533.33337"
     inkscape:window-width="1920"
     inkscape:window-height="1018"
     inkscape:window-x="-8"
     inkscape:window-y="-8"
     inkscape:window-maximized="1"
     inkscape:current-layer="g1415" /><g
     id="g1415"
     inkscape:groupmode="layer"
     inkscape:label="dragon-color-2-pubicdomainvectors.org"
     transform="matrix(1.3333333,0,0,-1.3333333,0,1066.6667)"><g
       id="g1417"><g
         id="g1419"
         clip-path="url(#clipPath1423)"><path
           d="m 501.732,748.53 c -0.981,-1.092 -1.972,-2.17 -2.97,-3.239 l 0.827,-0.065 c 0.721,1.094 1.435,2.195 2.143,3.304"
           style="fill:#e65100;fill-opacity:1;fill-rule:nonzero;stroke:none"
           id="path1425" /><path
           d="m 648.483,604.027 c -1.455,2.524 -2.988,5.021 -4.611,7.486 -12.465,18.912 -24.55,37.951 -40.317,52.885 L 577.827,626.96 Z"
           style="fill:#fb6100;fill-opacity:1;fill-rule:nonzero;stroke:none"
           id="path1427" /><path
           d="m 644.818,357.522 5.566,-1.561 c 3.725,9.727 7.173,19.542 10.328,29.453 l -11.055,-3.625 c -1.243,-8.115 -2.867,-16.207 -4.839,-24.267"
           style="fill:#d8f890;fill-opacity:1;fill-rule:nonzero;stroke:none"
           id="path1429" /><path
           d="m 643.714,353.135 c -1.6,-6.157 -5.422,-11.85 -4.341,-20.269 1.85,2.478 3.174,3.697 3.816,5.193 2.501,5.934 4.898,11.903 7.195,17.902 l -5.566,1.561 c -0.358,-1.463 -0.723,-2.926 -1.104,-4.387"
           style="fill:#c5f5c1;fill-opacity:1;fill-rule:nonzero;stroke:none"
           id="path1431" /><path
           d="m 603.555,664.398 c -8.482,8.035 -18.03,14.878 -29.275,19.877 l 3.547,-57.315 z"
           style="fill:#f55a00;fill-opacity:1;fill-rule:nonzero;stroke:none"
           id="path1433" /><path
           d="m 620.16,527.688 c 15.541,-21.102 25.233,-45.404 29.443,-70.939 1.607,-9.77 2.547,-19.548 2.872,-29.318 l 24.976,33.048 c 1.803,19.166 1.326,38.371 -1.788,57.329 l -55.578,9.978 c 0.024,-0.033 0.051,-0.065 0.075,-0.098"
           style="fill:#ffd100;fill-opacity:1;fill-rule:nonzero;stroke:none"
           id="path1435" /><path
           d="m 649.657,381.789 11.055,3.625 c 4.48,14.073 8.374,28.339 11.605,42.823 2.388,10.701 4.121,21.465 5.134,32.242 l -24.976,-33.048 c 0.504,-15.253 -0.497,-30.489 -2.818,-45.642"
           style="fill:#f9ed2d;fill-opacity:1;fill-rule:nonzero;stroke:none"
           id="path1437" /><path
           d="m 620.085,527.786 55.578,-9.978 c -0.267,1.623 -0.548,3.244 -0.853,4.864 -3.107,16.451 -6.623,32.931 -11.947,48.851 l -72.56,-26.42 c 12.082,-2.524 23.209,-8.458 29.782,-17.317"
           style="fill:#fd9d00;fill-opacity:1;fill-rule:nonzero;stroke:none"
           id="path1439" /><path
           d="m 569.233,545.981 c 6.883,0.894 14.133,0.57 21.07,-0.878 l 72.56,26.42 c -3.739,11.18 -8.371,22.081 -14.38,32.504 l -70.656,22.933 z"
           style="fill:#ff9300;fill-opacity:1;fill-rule:nonzero;stroke:none"
           id="path1441" /><path
           d="m 596.542,261.543 c 9.425,20.08 12.037,42.98 8.89,67.788 -0.32,2.519 -0.735,4.968 -1.237,7.353 l -8.026,-75.086 z"
           style="fill:#cbf387;fill-opacity:1;fill-rule:nonzero;stroke:none"
           id="path1443" /><path
           d="m 596.442,261.33 c 0.035,0.07 0.067,0.143 0.1,0.213 l -0.373,0.055 z"
           style="fill:#96eaa2;fill-opacity:1;fill-rule:nonzero;stroke:none"
           id="path1445" /><path
           d="m 595.756,259.909 c 0.232,0.472 0.462,0.945 0.686,1.421 l -0.273,0.268 z"
           style="fill:#9ae292;fill-opacity:1;fill-rule:nonzero;stroke:none"
           id="path1447" /><path
           d="m 547.87,396.926 c -13.867,5.015 -27.839,7.641 -41.89,8.404 l 60.313,-16.952 c -5.666,3.319 -11.829,6.163 -18.423,8.548"
           style="fill:#ffce00;fill-opacity:1;fill-rule:nonzero;stroke:none"
           id="path1449" /><path
           d="m 546.859,503.133 -28.872,-45.745 c 13.537,12.671 24.181,28.213 28.872,45.745"
           style="fill:#ffce00;fill-opacity:1;fill-rule:nonzero;stroke:none"
           id="path1451" /><path
           d="m 469.597,348.898 c 15.523,2.269 31.392,2.344 47.506,0.073 3.292,-0.465 6.608,-1.245 9.871,-2.324 l -43.973,54.05 z"
           style="fill:#f0d03c;fill-opacity:1;fill-rule:nonzero;stroke:none"
           id="path1453" /><path
           d="m 563.097,302.247 c 0.131,-4.784 -0.481,-9.864 -1.981,-15.212 -2.49,-8.88 -5.954,-16.845 -10.374,-23.859 l 45.427,-1.578 z"
           style="fill:#f0d03c;fill-opacity:1;fill-rule:nonzero;stroke:none"
           id="path1455" /><path
           d="m 483.001,400.697 43.973,-54.05 c 18.633,-6.155 35.515,-22.026 36.123,-44.4 l 33.072,-40.649 -0.728,98.221 c -6.893,11.897 -16.845,21.353 -29.148,28.559 L 505.98,405.33 c -6.967,0.379 -13.956,0.299 -20.959,-0.175 l -1.469,-2.328 z"
           style="fill:#f6e63a;fill-opacity:1;fill-rule:nonzero;stroke:none"
           id="path1457" /><path
           d="m 511.624,618.929 c -7.301,7.928 -15.615,14.384 -24.809,19.562 l -20.871,-25.104 z"
           style="fill:#fb6800;fill-opacity:1;fill-rule:nonzero;stroke:none"
           id="path1459" /><path
           d="m 574.28,684.275 c -6.456,2.87 -13.468,5.133 -21.164,6.662 -8.94,1.774 -17.213,1.202 -24.19,-1.795 l -18.597,-22.369 c 3.206,-1.835 5.303,0.862 7.817,1.914 16.609,6.977 32.635,1.83 42.354,-13.738 5.545,-8.899 8.362,-18.704 10.014,-28.877 l 7.313,0.888 z"
           style="fill:#fb6800;fill-opacity:1;fill-rule:nonzero;stroke:none"
           id="path1461" /><path
           d="m 550.742,263.176 c -10.243,-16.258 -25.653,-27.379 -46.203,-32.738 -0.293,-0.077 -0.586,-0.145 -0.878,-0.219 l 35.674,-23.545 c 7.402,3.632 14.6,7.972 21.598,13.022 15.903,11.478 27.352,25.018 34.823,40.213 l 0.413,1.689 z"
           style="fill:#c7df6f;fill-opacity:1;fill-rule:nonzero;stroke:none"
           id="path1463" /><path
           d="m 474.466,505.327 c -12.44,-13.837 -27.791,-22.789 -45.648,-25.991 l 37.457,-52.359 c 18.009,5.769 36.651,16.312 51.712,30.411 l 28.872,45.745 c 2.445,9.136 3.275,18.811 2.054,28.902 -0.006,0.041 -0.009,0.081 -0.014,0.122 l -68.058,-17.3 c -1.77,-3.573 -3.925,-6.805 -6.375,-9.53"
           style="fill:#feb200;fill-opacity:1;fill-rule:nonzero;stroke:none"
           id="path1465" /><path
           d="m 485.021,405.155 c -0.991,-0.067 -1.983,-0.141 -2.974,-0.224 l 1.505,-2.104 z"
           style="fill:#feb200;fill-opacity:1;fill-rule:nonzero;stroke:none"
           id="path1467" /><path
           d="m 499.589,745.226 -0.827,0.065 c -13.276,-14.234 -27.953,-26.524 -43.527,-37.562 l 1.483,-13.067 c 16.226,15.034 30.517,31.787 42.871,50.564"
           style="fill:#f35c00;fill-opacity:1;fill-rule:nonzero;stroke:none"
           id="path1469" /><path
           d="m 486.815,638.491 c -7.714,4.345 -16.046,7.792 -24.909,10.47 l 4.038,-35.574 z"
           style="fill:#f35c00;fill-opacity:1;fill-rule:nonzero;stroke:none"
           id="path1471" /><path
           d="m 510.237,666.824 c 0.032,-0.018 0.062,-0.033 0.092,-0.051 l 18.597,22.369 c -8.597,-3.692 -15.225,-11.068 -18.689,-22.318"
           style="fill:#f35c00;fill-opacity:1;fill-rule:nonzero;stroke:none"
           id="path1473" /><path
           d="m 435.816,230.845 -10.587,-30.351 c 12.234,-2.473 24.51,-4.765 36.961,-6.286 27.969,-3.408 53.598,0.91 77.145,12.466 l -35.674,23.545 c -22.457,-5.656 -45.446,-3.677 -67.845,0.626"
           style="fill:#d3bf53;fill-opacity:1;fill-rule:nonzero;stroke:none"
           id="path1475" /><path
           d="m 559.358,543.745 c 3.147,1.051 6.465,1.794 9.875,2.236 l 8.594,80.979 -7.313,-0.888 c 0.282,-1.737 0.531,-3.485 0.754,-5.242 1.954,-15.351 -16.761,-45.548 -32.997,-52.132 -5.894,21.095 -14.972,37.551 -26.647,50.231 l -45.68,-5.542 z"
           style="fill:#ff8500;fill-opacity:1;fill-rule:nonzero;stroke:none"
           id="path1477" /><path
           d="m 452.376,582.515 c 6.461,-3.232 12.751,-7.368 18.857,-12.564 17.66,-15.027 17.739,-38.673 9.608,-55.094 l 68.058,17.3 c -0.437,3.756 0.189,6.871 4.21,8.961 1.982,1.027 4.075,1.9 6.249,2.627 l -93.414,69.642 z"
           style="fill:#fe9400;fill-opacity:1;fill-rule:nonzero;stroke:none"
           id="path1479" /><path
           d="m 456.718,694.662 -1.483,13.067 c -17.5,-12.401 -36.129,-23.222 -55.183,-33.429 -3.091,-1.657 -6.21,-3.225 -9.364,-4.694 l 16.416,-12.263 c 18.168,11.151 34.709,23.51 49.614,37.319"
           style="fill:#f04f00;fill-opacity:1;fill-rule:nonzero;stroke:none"
           id="path1481" /><path
           d="m 461.906,648.961 c -16.334,4.935 -34.475,7.25 -53.901,7.709 l 57.939,-43.283 z"
           style="fill:#f04f00;fill-opacity:1;fill-rule:nonzero;stroke:none"
           id="path1483" /><path
           d="m 332.3,632.47 c -5.858,-7.213 -12.512,-12.553 -20.079,-17.04 l 0.021,-1.676 153.702,-0.367 -57.939,43.283 c -0.64,0.016 -1.278,0.031 -1.92,0.043 0.342,0.208 0.679,0.421 1.019,0.63 l -16.416,12.263 c -13.138,-6.123 -26.875,-10.535 -41.751,-12.566 -12.964,-1.769 -25.831,-3.918 -37.129,-9.053 l 0.213,-16.802 c 5.566,2.252 12.31,2.662 20.279,1.285"
           style="fill:#f64e00;fill-opacity:1;fill-rule:nonzero;stroke:none"
           id="path1485" /><path
           d="m 413.651,330.597 c 17.984,9.303 36.699,15.49 55.946,18.301 l 13.404,51.799 0.551,2.13 -17.728,0.097 c -7.054,-1.144 -14.123,-2.624 -21.201,-4.379 -25.098,-6.219 -48.299,-16.793 -71.306,-27.789 l 32.046,-44.437 c 2.764,1.424 5.528,2.849 8.288,4.278"
           style="fill:#fb9b00;fill-opacity:1;fill-rule:nonzero;stroke:none"
           id="path1487" /><path
           d="m 420.13,478.244 c -6.402,-0.461 -12.8,-0.702 -19.192,-0.772 l -38.777,-55.891 c 29.873,-2.77 59.704,-3.655 89.977,1.83 4.615,0.836 9.354,2.032 14.137,3.566 l -37.457,52.359 c -2.834,-0.509 -5.729,-0.877 -8.688,-1.092"
           style="fill:#ffa300;fill-opacity:1;fill-rule:nonzero;stroke:none"
           id="path1489" /><path
           d="m 483.552,402.827 -1.505,2.104 c -5.4,-0.451 -10.808,-1.129 -16.223,-2.007 z"
           style="fill:#ffa300;fill-opacity:1;fill-rule:nonzero;stroke:none"
           id="path1491" /><path
           d="m 312.242,613.754 37.689,-42.249 c 3.416,1.067 6.826,2.469 10.317,4.065 9.063,4.145 14.558,13.705 24.997,15.122 23.898,3.24 46.399,2.194 67.131,-8.177 l 13.568,30.872 z"
           style="fill:#fd7700;fill-opacity:1;fill-rule:nonzero;stroke:none"
           id="path1493" /><path
           d="m 305.874,274.03 c 8.859,3.812 17.534,8.234 26.032,13.129 24.082,13.876 48.795,26.457 73.457,39.16 l -32.046,44.437 c -11.733,-5.608 -23.416,-11.325 -35.273,-16.632 -3.359,-1.505 -6.702,-3.047 -10.035,-4.612 l -30.072,-75.075 z"
           style="fill:#f56500;fill-opacity:1;fill-rule:nonzero;stroke:none"
           id="path1495" /><path
           d="m 389.724,139.459 c -1.231,-0.533 -2.338,-1.189 -3.352,-1.935 l -21.359,-31.209 c 12.366,9.142 23.799,23.69 24.711,33.144"
           style="fill:#bc5024;fill-opacity:1;fill-rule:nonzero;stroke:none"
           id="path1497" /><path
           d="m 301.249,272.103 c 1.548,0.623 3.089,1.266 4.625,1.927 l -7.937,0.407 z"
           style="fill:#e07000;fill-opacity:1;fill-rule:nonzero;stroke:none"
           id="path1499" /><path
           d="m 430.819,231.841 c -25.562,5.29 -50.888,6.966 -75.988,2.514 l 39.03,-27.496 c 10.48,-2.005 20.909,-4.25 31.368,-6.365 l 10.587,30.351 c -1.669,0.319 -3.335,0.652 -4.997,0.996"
           style="fill:#e07000;fill-opacity:1;fill-rule:nonzero;stroke:none"
           id="path1501" /><path
           d="m 314.568,483.11 c -1.148,0.11 -2.294,0.212 -3.438,0.31 l 28.701,-59.489 c 7.451,-0.855 14.893,-1.66 22.33,-2.35 l 38.777,55.891 c -28.881,-0.32 -57.661,2.9 -86.37,5.638"
           style="fill:#ff8800;fill-opacity:1;fill-rule:nonzero;stroke:none"
           id="path1503" /><path
           d="m 311.264,571.544 c 4.841,0.927 10.024,0.633 15.534,-0.846 8.346,-2.241 15.756,-1.497 23.133,0.807 l -37.689,42.249 z"
           style="fill:#fd7400;fill-opacity:1;fill-rule:nonzero;stroke:none"
           id="path1505" /><path
           d="m 347.133,97.989 c 5.415,0.604 11.762,3.804 17.88,8.326 l 21.359,31.209 c -3.181,-2.335 -5.426,-5.544 -7.514,-8.596 -13.4,-19.615 -30.244,-26.42 -46.866,-26.113 l 3.046,-5.824 c 4.011,0.199 8.047,0.547 12.095,0.998"
           style="fill:#c22c00;fill-opacity:1;fill-rule:nonzero;stroke:none"
           id="path1507" /><path
           d="m 336.831,230.07 c -12.887,-3.88 -25.172,-8.503 -36.118,-14.691 l 1.36,-28.923 c 21.685,16.875 52.274,26.98 76.378,23.129 5.155,-0.822 10.289,-1.746 15.41,-2.726 l -39.03,27.496 c -6.013,-1.066 -12.014,-2.48 -18,-4.285"
           style="fill:#d54200;fill-opacity:1;fill-rule:nonzero;stroke:none"
           id="path1509" /><path
           d="m 298.104,270.864 c 1.051,0.405 2.099,0.818 3.145,1.239 l -3.312,2.334 z"
           style="fill:#d54200;fill-opacity:1;fill-rule:nonzero;stroke:none"
           id="path1511" /><path
           d="m 269.085,549.019 c 9.171,-0.908 16.887,2.705 22.769,9.987 5.676,7.021 12.162,11.149 19.41,12.538 l 0.978,42.21 z"
           style="fill:#fa6200;fill-opacity:1;fill-rule:nonzero;stroke:none"
           id="path1513" /><path
           d="m 310.764,614.581 1.478,-0.827 -0.021,1.676 c -0.482,-0.286 -0.967,-0.57 -1.457,-0.849"
           style="fill:#f03600;fill-opacity:1;fill-rule:nonzero;stroke:none"
           id="path1515" /><path
           d="m 312.021,631.185 -0.213,16.802 c -9.397,-4.27 -17.707,-10.609 -24.086,-20.513 l 12.183,-6.818 c 3.11,5.024 7.14,8.516 12.116,10.529"
           style="fill:#f03600;fill-opacity:1;fill-rule:nonzero;stroke:none"
           id="path1517" /><path
           d="m 305.13,483.884 -80.927,-64.183 19.172,-2.467 c 25.998,9.868 53.283,11.809 80.63,8.557 5.282,-0.628 10.557,-1.256 15.826,-1.86 L 311.13,483.42 c -2.006,0.173 -4.006,0.327 -6,0.464"
           style="fill:#ff7200;fill-opacity:1;fill-rule:nonzero;stroke:none"
           id="path1519" /><path
           d="M 328.009,349.512 C 309.651,340.896 291.592,331.6 272.774,324.01 l 25.163,-49.573 z"
           style="fill:#fc6300;fill-opacity:1;fill-rule:nonzero;stroke:none"
           id="path1521" /><path
           d="m 228.77,410.705 c 1.376,0.745 2.801,1.466 4.283,2.162 3.415,1.603 6.858,3.053 10.322,4.367 l -19.172,2.467 z"
           style="fill:#fc6300;fill-opacity:1;fill-rule:nonzero;stroke:none"
           id="path1523" /><path
           d="m 273.624,114.449 c 18.439,-15.203 39.564,-18.543 61.414,-17.458 l -3.046,5.824 c -14.158,0.261 -28.155,5.682 -39.725,12.755 -11.306,6.909 -17.281,22.779 -15.506,35.611 l -19.272,-4.507 c 0.824,-12.321 6.423,-24.227 16.135,-32.225"
           style="fill:#be0006;fill-opacity:1;fill-rule:nonzero;stroke:none"
           id="path1525" /><path
           d="m 224.178,408.009 c 1.46,0.93 2.99,1.83 4.592,2.696 l -4.567,8.996 z"
           style="fill:#f23700;fill-opacity:1;fill-rule:nonzero;stroke:none"
           id="path1527" /><path
           d="m 224.473,259.54 c 6.132,-0.512 12.183,-0.645 18.157,-0.436 l 55.307,15.333 -25.163,49.573 c -4.752,-1.917 -9.55,-3.727 -14.417,-5.388 -11.299,-3.851 -24.049,-2.779 -34.373,2.09 l -0.135,-61.115 c 0.209,-0.019 0.415,-0.039 0.624,-0.057"
           style="fill:#f23700;fill-opacity:1;fill-rule:nonzero;stroke:none"
           id="path1529" /><path
           d="m 242.63,259.104 c 19.282,0.677 37.747,4.949 55.474,11.76 l -0.167,3.573 z"
           style="fill:#db2f00;fill-opacity:1;fill-rule:nonzero;stroke:none"
           id="path1531" /><path
           d="m 274.012,193.083 15.308,-18.555 c 3.722,4.248 8.026,8.248 12.753,11.928 l -1.36,28.923 c -10.289,-5.818 -19.396,-13.02 -26.701,-22.296"
           style="fill:#db2f00;fill-opacity:1;fill-rule:nonzero;stroke:none"
           id="path1533" /><path
           d="m 305.13,483.884 c -25.237,1.727 -49.513,0.468 -72.451,-6.71 l -8.476,-57.473 z"
           style="fill:#fa6800;fill-opacity:1;fill-rule:nonzero;stroke:none"
           id="path1535" /><path
           d="m 263.486,550.088 c 1.921,-0.538 3.788,-0.891 5.599,-1.069 l 43.157,64.735 -1.478,0.827 c -5.037,-2.873 -10.47,-5.408 -16.333,-7.889 1.308,5.54 3.132,10.182 5.474,13.964 l -12.183,6.818 c -1.59,-2.47 -3.063,-5.157 -4.4,-8.093 -5.318,-11.665 -14.236,-22.039 -30.289,-21.069 -2.47,0.153 -5.181,-0.546 -7.534,-2.001 l -4.295,-43.592 c 4.522,1.485 11.636,0.35 22.282,-2.631"
           style="fill:#f64d00;fill-opacity:1;fill-rule:nonzero;stroke:none"
           id="path1537" /><path
           d="m 258.738,161.06 c -1.168,-4.721 -1.57,-9.584 -1.249,-14.386 l 19.272,4.507 c 0.352,2.551 1.005,4.986 1.991,7.203 2.51,5.65 6.126,11.073 10.568,16.144 l -15.308,18.555 c -6.833,-8.675 -12.092,-19.161 -15.274,-32.023"
           style="fill:#ca1500;fill-opacity:1;fill-rule:nonzero;stroke:none"
           id="path1539" /><path
           d="m 148.347,314.137 c 14.398,-29.91 37.876,-49.729 71.256,-54.078 l -81.884,119.235 c -3.747,-22.406 0.78,-44.693 10.628,-65.157"
           style="fill:#e21c00;fill-opacity:1;fill-rule:nonzero;stroke:none"
           id="path1541" /><path
           d="m 148.456,409.901 c -3.445,-6.193 -6.271,-12.808 -8.329,-19.96 -1.021,-3.547 -1.814,-7.099 -2.408,-10.647 l 81.884,-119.235 c 1.397,-0.182 2.814,-0.335 4.246,-0.462 l 0.135,61.115 c -8.026,3.785 -14.586,9.866 -17.856,17.714 -11.587,27.794 -7.326,53.413 18.05,69.583 l 0.025,11.692 z"
           style="fill:#f24600;fill-opacity:1;fill-rule:nonzero;stroke:none"
           id="path1543" /><path
           d="m 234.299,521.885 c 0.481,1.961 1.013,2.957 0.914,3.888 -1.734,16.612 -0.782,24.72 5.991,26.946 l 4.295,43.592 c -2.078,-1.286 -3.877,-3.159 -4.971,-5.58 -3.213,-7.122 -9.167,-9.666 -16.122,-11.541 -6.366,-1.718 -11.882,-5.259 -17.068,-9.496 -5.053,-4.117 -6.003,-8.498 -3.722,-14.425 5.797,-15.043 18.145,-23.725 30.683,-33.384"
           style="fill:#ed4100;fill-opacity:1;fill-rule:nonzero;stroke:none"
           id="path1545" /><path
           d="m 232.679,477.174 c -16.3,-5.101 -31.924,-13.188 -46.739,-25.317 -1.839,-1.506 -3.652,-3.028 -5.435,-4.567 l 43.698,-27.589 z"
           style="fill:#f55e00;fill-opacity:1;fill-rule:nonzero;stroke:none"
           id="path1547" /><path
           d="m 180.505,447.29 c -12.841,-11.082 -24.102,-23.105 -32.049,-37.389 l 75.747,9.8 z"
           style="fill:#f15700;fill-opacity:1;fill-rule:nonzero;stroke:none"
           id="path1549" /></g></g></g></svg>
